<?xml version="1.0" standalone="no"?>
<!DOCTYPE svg PUBLIC "-//W3C//DTD SVG 20010904//EN"
 "http://www.w3.org/TR/2001/REC-SVG-20010904/DTD/svg10.dtd">
<svg version="1.0" xmlns="http://www.w3.org/2000/svg"
 width="700.000000pt" height="700.000000pt" viewBox="0 0 700.000000 700.000000"
 preserveAspectRatio="xMidYMid meet">
<metadata>
Created by potrace 1.11, written by Peter Selinger 2001-2013
</metadata>
<g transform="translate(0.000000,700.000000) scale(0.100000,-0.100000)"
fill="#000000" stroke="none">
<path d="M3550 6831 c0 -5 -8 -11 -17 -14 -10 -4 -58 -33 -108 -66 -49 -33
-157 -103 -240 -156 -82 -53 -337 -217 -565 -365 -228 -148 -455 -295 -505
-326 -49 -32 -161 -104 -247 -161 l-158 -102 202 -288 c110 -158 209 -296 218
-307 18 -18 60 -19 1360 -18 1234 0 1343 -1 1357 -17 27 -30 283 -401 283
-410 0 -4 -35 -31 -77 -59 -43 -27 -170 -109 -283 -182 -113 -73 -234 -152
-270 -175 -140 -90 -1196 -772 -1207 -778 -7 -4 -22 8 -38 30 -15 21 -96 137
-181 258 -84 121 -158 227 -164 235 -189 269 -505 721 -606 865 -73 105 -139
200 -148 211 l-15 22 -558 -2 -557 -1 0 -2450 0 -2450 2554 0 2555 0 1 2440
c0 1342 -2 2445 -4 2452 -3 9 -160 11 -648 11 -365 0 -649 3 -653 8 -7 8 -286
405 -949 1354 -227 324 -241 344 -282 401 -33 46 -50 60 -50 40z m1428 -3723
c11 -18 40 -61 64 -94 108 -153 158 -226 158 -232 0 -4 -70 -52 -155 -107 -85
-55 -222 -143 -303 -196 -524 -340 -1385 -896 -1400 -904 -9 -6 -48 -31 -87
-56 -206 -136 -416 -269 -423 -269 -4 0 -50 62 -102 137 -147 211 -172 248
-390 558 -344 490 -440 628 -440 636 0 7 347 235 367 241 7 2 36 -31 65 -73
544 -782 621 -888 642 -877 11 6 63 39 116 73 52 34 237 153 410 265 397 256
434 280 942 610 114 74 218 141 230 148 13 7 77 48 143 92 66 43 125 79 132
79 6 1 20 -14 31 -31z"/>
</g>
</svg>
